<?xml version="1.0" encoding="utf-8"?>
<!-- Generator: Adobe Illustrator 24.1.1, SVG Export Plug-In . SVG Version: 6.00 Build 0)  -->
<svg version="1.1" id="Layer_1" xmlns="http://www.w3.org/2000/svg" xmlns:xlink="http://www.w3.org/1999/xlink" x="0px" y="0px"
	 viewBox="0 0 512 512" style="enable-background:new 0 0 512 512;" xml:space="preserve">
<g>
	<path fill="#fff" d="M144.1,6.4c5.3,0,9.5,4.3,9.5,9.5v480.2c0,5.3-4.3,9.5-9.5,9.5h-32.2c-5.3,0-9.5-4.3-9.5-9.5V15.9c0-5.3,4.3-9.5,9.5-9.5
		H144.1 M144.1,0h-32.2C103.1,0,96,7.1,96,15.9v480.2c0,8.8,7.1,15.9,15.9,15.9h32.2c8.8,0,15.9-7.1,15.9-15.9V15.9
		C160,7.1,152.9,0,144.1,0z M96.5,385.4v110.8c0,8.8,7.1,15.9,15.9,15.9h32.2c8.8,0,15.9-7.1,15.9-15.9v0l-0.1-115.4
		c-3-50,16.5-98.6,53.3-132.6l78.3-66.1c3.8-5.1,11-6.1,16-2.3c2.4,1.8,4,4.5,4.5,7.5l29.4,99.5c2.7,6.3,9.9,9.3,16.2,6.6
		c4-1.7,6.9-5.4,7.5-9.8L416,32L159.8,46.4c-6.8-0.1-12.4,5.4-12.5,12.3c0,4.4,2.2,8.5,6,10.7l94.4,43.2c6.1,1.8,9.5,8.1,7.8,14.2
		c-0.9,2.9-2.8,5.4-5.5,6.8L171.3,200C119.6,247.3,92.1,315.4,96.5,385.4z"/>
</g>
</svg>
