<?xml version="1.0" encoding="utf-8"?>
<!-- Generator: Adobe Illustrator 24.1.1, SVG Export Plug-In . SVG Version: 6.00 Build 0)  -->
<svg version="1.1" id="Layer_1" xmlns="http://www.w3.org/2000/svg" xmlns:xlink="http://www.w3.org/1999/xlink" x="0px" y="0px"
	 viewBox="0 0 512 512" style="enable-background:new 0 0 512 512;" xml:space="preserve">
<g>
	<path fill="#fff" d="M287.8,127.8l0.3,0c106.2,1.2,191.7,87.9,191.4,194.1v126.1h-0.1l0.1,48c0,8.8-7.1,15.9-15.8,15.9h0h-32.2
		c-8.8,0-15.9-7.1-15.9-15.9V322c0.3-71-56.5-129-127.5-130.2h-63.9c-6.2-1.3-12.3,2.6-13.6,8.7c-0.6,3-0.1,6.1,1.6,8.6l42.9,94.4
		c2.1,6.5-1.4,13.5-7.9,15.6c-4.2,1.3-8.7,0.4-12-2.5L32.4,160.4L235.3,3.1c5.1-4.5,12.9-4,17.4,1.1c2.9,3.3,3.8,7.9,2.5,12
		l-42.9,94.3c-3.4,5.3-1.9,12.4,3.4,15.8c2.6,1.6,5.7,2.2,8.6,1.5L287.8,127.8"/>
</g>
</svg>
