<?xml version="1.0" encoding="utf-8"?>
<!-- Generator: Adobe Illustrator 24.1.1, SVG Export Plug-In . SVG Version: 6.00 Build 0)  -->
<svg version="1.1" id="Layer_1" xmlns="http://www.w3.org/2000/svg" xmlns:xlink="http://www.w3.org/1999/xlink" x="0px" y="0px"
	 viewBox="0 0 512 512" style="enable-background:new 0 0 512 512;" xml:space="preserve">
<g>
	<path fill="#fff"  d="M426.2,376.9v118.1c0,9.3-7.6,16.9-16.9,16.9h-34.4c-9.4,0-16.9-7.6-16.9-16.9v0l0.1-123.1c3.2-53.3-17.6-105.2-56.8-141.4
		l-83.6-70.5c-4-5.4-11.7-6.5-17.1-2.5c-2.6,1.9-4.3,4.8-4.8,8l-31.3,106.2c-2.8,6.7-10.6,9.9-17.3,7c-4.3-1.8-7.3-5.8-7.9-10.4
		L85.3,0l273.2,15.4c7.3-0.1,13.3,5.8,13.3,13.1c0,4.7-2.4,9-6.4,11.4L264.8,85.9c-6.5,1.9-10.2,8.7-8.3,15.2c0.9,3.1,3,5.7,5.9,7.3
		l83.9,70.8C401.5,229.6,430.8,302.3,426.2,376.9z"/>
</g>
</svg>
