<?xml version="1.0" encoding="utf-8"?>
<!-- Generator: Adobe Illustrator 24.1.1, SVG Export Plug-In . SVG Version: 6.00 Build 0)  -->
<svg version="1.1" id="Layer_1" xmlns="http://www.w3.org/2000/svg" xmlns:xlink="http://www.w3.org/1999/xlink" x="0px" y="0px"
	 viewBox="0 0 512 512" style="enable-background:new 0 0 512 512;" xml:space="preserve">
<g>
	<path fill="#fff" d="M399.8,222.9l-94.5-43c-5.3-3.4-12.4-1.9-15.8,3.5c-1.6,2.5-2.2,5.7-1.5,8.6v303.9c0,8.9-7.2,16.1-16.1,16.1h-31.8
		c-8.9,0-16.1-7.2-16.1-16.1V192c1.4-6.2-2.5-12.3-8.7-13.6c-3-0.7-6.1-0.1-8.6,1.5l-94.5,43c-6.5,2.1-13.5-1.4-15.6-7.9
		c-1.4-4.2-0.4-8.7,2.5-12L256,0l156.9,203c4.5,5.1,4,12.9-1.1,17.5C408.6,223.3,404,224.3,399.8,222.9z"/>
</g>
</svg>
